<?xml version="1.0" standalone="no"?>
<!DOCTYPE svg PUBLIC "-//W3C//DTD SVG 20010904//EN"
 "http://www.w3.org/TR/2001/REC-SVG-20010904/DTD/svg10.dtd">
<svg version="1.0" xmlns="http://www.w3.org/2000/svg"
 width="128.000000pt" height="128.000000pt" viewBox="0 0 128.000000 128.000000"
 preserveAspectRatio="xMidYMid meet">

<g transform="translate(0.000000,128.000000) scale(0.100000,-0.100000)"
fill="#000000" stroke="none">
<path d="M636 958 c-31 -51 -317 -548 -322 -562 -5 -13 3 -16 43 -16 l49 0
134 234 c74 129 136 233 138 231 2 -2 10 -29 18 -60 l15 -57 -87 -151 c-48
-84 -94 -162 -102 -174 -14 -23 -14 -23 39 -23 l54 0 52 93 c84 148 75 146
109 18 l29 -111 47 0 47 0 -35 128 c-62 231 -59 205 -30 254 14 25 26 50 26
56 0 6 -19 12 -42 14 l-41 3 -20 73 -19 72 -44 0 c-34 0 -47 -5 -58 -22z"/>
</g>
</svg>
